<svg id="logo" xmlns="http://www.w3.org/2000/svg" width="118.08" height="66.679" viewBox="0 0 118.08 66.679">
  <g id="Layer_1" data-name="Layer 1">
    <path id="Path_1055" data-name="Path 1055" d="M76.1,57.549a32.757,32.757,0,0,1-11.749-2.144A24.612,24.612,0,0,1,55,49.109l6.128-7.934a27.423,27.423,0,0,0,7.031,5.064,17.463,17.463,0,0,0,6.752,1.511,13.8,13.8,0,0,0,6.128-1.258,4.735,4.735,0,0,0,2.684-4.532,4.676,4.676,0,0,0-1.789-3.908A13.074,13.074,0,0,0,77.35,35.6q-2.811-1.013-5.908-1.891-7.031-2.135-10.474-6.3a14.593,14.593,0,0,1-3.435-9.538A15.674,15.674,0,0,1,59.7,9.938a16.965,16.965,0,0,1,6.541-6.406A22.867,22.867,0,0,1,77.612,1a36.935,36.935,0,0,1,10.6,1.384,27.009,27.009,0,0,1,8.559,4.406l-5.478,8.44a15.741,15.741,0,0,0-5.512-3.258,17.269,17.269,0,0,0-5.621-1.384,9.622,9.622,0,0,0-5.748,1.384,4.642,4.642,0,0,0-2.3,4.034,4.651,4.651,0,0,0,1.688,4.026,14.416,14.416,0,0,0,4.828,2.38q2.937.844,5.908,1.891A25.777,25.777,0,0,1,94.214,29.7q3.84,3.376,3.832,9.571a17.674,17.674,0,0,1-2.431,9.073,17.463,17.463,0,0,1-7.276,6.676A26.345,26.345,0,0,1,76.1,57.549Z" transform="translate(-8.578 -0.155)" fill="#fff"/>
    <path id="Path_1056" data-name="Path 1056" d="M48.5,66.835h-12.2l-6.507-9.765a6.99,6.99,0,0,1-1.013.076h-.92a27.009,27.009,0,0,1-7.4-1.021,28.5,28.5,0,0,1-6.626-2.794A29.263,29.263,0,0,1,3.79,43.2,29.93,29.93,0,0,1,.979,36.5a28.891,28.891,0,0,1,0-14.914,28.976,28.976,0,0,1,2.811-6.7,29.482,29.482,0,0,1,4.4-5.672A27.729,27.729,0,0,1,35.272,2.021a27.338,27.338,0,0,1,6.651,2.8,27.929,27.929,0,0,1,5.63,4.389,28.351,28.351,0,0,1,4.364,5.68,27.853,27.853,0,0,1,2.777,6.7,27.406,27.406,0,0,1,1.013,7.461,26.908,26.908,0,0,1-1.131,7.8,28.4,28.4,0,0,1-3.089,7.073A28.782,28.782,0,0,1,40.159,54.267ZM45,29.056a16.746,16.746,0,0,0-1.359-6.7,17.336,17.336,0,0,0-9.124-9.2,16.94,16.94,0,0,0-13.336,0,17.4,17.4,0,0,0-5.444,3.705,16.982,16.982,0,0,0-3.68,5.495,17.2,17.2,0,0,0,0,13.4,17.522,17.522,0,0,0,9.124,9.132,16.985,16.985,0,0,0,18.78-3.714,17.514,17.514,0,0,0,3.68-5.444A16.779,16.779,0,0,0,45,29.056Z" transform="translate(0 -0.156)" fill="#fff"/>
    <path id="Path_1057" data-name="Path 1057" d="M119.29,5.6c0-3.089,1.519-5.6,3.376-5.6h10.643c1.882,0,3.376,2.532,3.376,5.6V51.8c0,3.089-1.528,5.6-3.376,5.6H122.691c-1.882,0-3.376-2.532-3.376-5.6Z" transform="translate(-18.605)" fill="#e00035"/>
    <path id="Path_1058" data-name="Path 1058" d="M132.869,54.32h-5.419l4.473,2.709v.684l-4.448,2.65h5.351v1.443H124.64V60.574l5.436-3.224-5.41-3.216V52.86h8.179Z" transform="translate(-19.44 -8.244)" fill="#fff"/>
    <path id="Path_1059" data-name="Path 1059" d="M131.031,43.551v4.094l1.891.844V50.05l-8.162-3.714V44.783l8.2-3.663v1.587Zm-1.19.5-3.587,1.528,3.57,1.553Z" transform="translate(-19.459 -6.413)" fill="#fff"/>
    <path id="Path_1060" data-name="Path 1060" d="M132.964,33.245l-2.406,1.688a1.291,1.291,0,0,1,0,.312v1.848h2.38v1.519H124.76V35.237c0-2.144,1.106-3.477,2.92-3.469a2.608,2.608,0,0,1,2.532,1.756l2.7-1.874Zm-6.9,2.026v1.781h3.258v-1.73c0-1.334-.6-2.026-1.629-2.026S126.068,33.937,126.06,35.271Z" transform="translate(-19.459 -4.936)" fill="#fff"/>
    <path id="Path_1061" data-name="Path 1061" d="M129.567,25.539l1.308,1.3h2.093v1.528l-8.179-.042V26.805h4.22l-4.22-4.06V21.057l3.638,3.452,4.541-3.629v1.789Z" transform="translate(-19.463 -3.257)" fill="#fff"/>
    <path id="Path_1062" data-name="Path 1062" d="M131.781,12.38h1.266v6.136H124.86V12.549h1.274v4.456h2.127v-3.95h1.249v3.95h2.22Z" transform="translate(-19.474 -1.931)" fill="#fff"/>
    <path id="Path_1063" data-name="Path 1063" d="M126.171,7.587V10.3H124.88V3.35h1.283V6.068h6.9V7.621Z" transform="translate(-19.477 -0.522)" fill="#fff"/>
  </g>
</svg>
