<svg xmlns="http://www.w3.org/2000/svg"  viewBox="0 0 50 50" width="100px" height="100px"><path d="M46.707,12.293l-8-8c-0.391-0.391-1.023-0.391-1.414,0L25,16.586L12.707,4.293c-0.391-0.391-1.023-0.391-1.414,0l-8,8	C3.105,12.48,3,12.735,3,13v23c0,0.265,0.105,0.52,0.293,0.707l10,10c0.286,0.287,0.718,0.372,1.09,0.217	C14.757,46.769,15,46.404,15,46V25.414l9.293,9.293C24.488,34.902,24.744,35,25,35s0.512-0.098,0.707-0.293L35,25.414V46	c0,0.404,0.243,0.769,0.617,0.924C35.741,46.975,35.871,47,36,47c0.26,0,0.516-0.102,0.707-0.293l10-10	C46.895,36.52,47,36.265,47,36V13C47,12.735,46.895,12.48,46.707,12.293z"/></svg>