<?xml version="1.0" encoding="utf-8"?>
<svg viewBox="0 0 35.552 36" fill="none" xmlns="http://www.w3.org/2000/svg">
  <path d="M26.951 3.67304V10.9084L17.9673 15.9271V5.87203L24.4261 2.32527C24.6771 2.18453 24.9613 2.10901 25.2513 2.10605C25.5412 2.10308 25.8271 2.17277 26.0811 2.30835C26.3351 2.44393 26.5486 2.64081 26.7011 2.87991C26.8535 3.119 26.9396 3.39221 26.951 3.67304Z" fill="#0EA5EA"/>
  <path opacity="0.3" d="M8.98355 3.67304V10.9084L17.9673 15.9271V5.87203L11.5085 2.32527C11.2575 2.18453 10.9733 2.10901 10.6833 2.10605C10.3933 2.10308 10.1075 2.17277 9.8535 2.30835C9.5995 2.44393 9.38594 2.64081 9.23352 2.87991C9.0811 3.119 8.995 3.39221 8.98355 3.67304Z" fill="#0EA5EA"/>
  <path d="M25.1509 32.0789L18.8694 28.4882L18.9706 18.1982L27.7001 23.1882L27.5741 30.5556C27.5717 30.8434 27.4962 31.1276 27.3549 31.3808C27.2135 31.634 27.0112 31.8476 26.7674 32.0008C26.5237 32.1541 26.2468 32.2418 25.9635 32.2554C25.6803 32.2691 25.4004 32.2083 25.1509 32.0789Z" fill="#0EA5EA"/>
  <path opacity="0.3" d="M34.0676 16.48L27.786 12.8893L18.9706 18.1982L27.7001 23.1882L33.9846 19.341C34.2313 19.1929 34.438 18.9836 34.5844 18.7333C34.7309 18.4831 34.8123 18.2003 34.8206 17.9125C34.829 17.6247 34.764 17.3416 34.6321 17.0906C34.5001 16.8397 34.3057 16.6293 34.0676 16.48Z" fill="#0EA5EA"/>
  <path opacity="0.3" d="M10.2771 32.0789L16.5586 28.4882L16.4574 18.1982L7.72785 23.1882L7.85393 30.5556C7.8563 30.8434 7.9318 31.1276 8.07312 31.3808C8.21445 31.634 8.41679 31.8476 8.66056 32.0008C8.90432 32.1541 9.18123 32.2418 9.46444 32.2554C9.74766 32.2691 10.0276 32.2083 10.2771 32.0789Z" fill="#0EA5EA"/>
  <path d="M1.36043 16.48L7.64198 12.8893L16.4574 18.1982L7.72785 23.1882L1.44339 19.341C1.19663 19.1929 0.990009 18.9836 0.843538 18.7333C0.697066 18.4831 0.615716 18.2003 0.607371 17.9125C0.599025 17.6247 0.663967 17.3416 0.795903 17.0906C0.92784 16.8397 1.1223 16.6293 1.36043 16.48Z" fill="#0EA5EA"/>
</svg>